<svg width="160" height="138" viewBox="0 0 160 138" fill="none" xmlns="http://www.w3.org/2000/svg">
<g opacity="0.5">
<rect x="33.1719" y="18.5391" width="11.7073" height="27.3171" rx="5.85366" fill="#D9D9D9"/>
<path d="M55.1236 120.002C46.6059 120.002 38.3281 116.859 31.5842 111.063C24.8402 105.267 20.01 97.1462 17.8485 87.9687C15.687 78.7912 16.3159 69.0746 19.6371 60.3375C22.9583 51.6003 28.7845 44.3351 36.2052 39.6772L55.1236 77.0753L55.1236 120.002Z" fill="#ABABAB"/>
<path d="M44.8789 47.8072C44.8789 55.8895 38.327 62.4414 30.2448 62.4414C22.1625 62.4414 15.6106 55.8895 15.6106 47.8072L15.6106 44.3229C15.6106 40.3203 18.8554 37.0756 22.858 37.0756L37.6315 37.0756C41.6341 37.0756 44.8789 40.3203 44.8789 44.3229L44.8789 47.8072Z" fill="#D9D9D9"/>
<path d="M30.7461 135.132C30.7461 110.953 50.3471 91.3516 74.5262 91.3516C98.7052 91.3516 118.306 110.953 118.306 135.132V137.321H30.7461V135.132Z" fill="#ABABAB"/>
<path d="M38.4062 135.132C38.4062 110.953 58.0073 91.3516 82.1863 91.3516C106.365 91.3516 125.966 110.953 125.966 135.132V137.321H38.4062V135.132Z" fill="#ABABAB"/>
<circle cx="71.2417" cy="37.7222" r="16.4175" fill="#575757"/>
<circle cx="55.9214" cy="48.6636" r="16.4175" fill="#575757"/>
<circle cx="95.3212" cy="43.1923" r="24.079" fill="#575757"/>
<circle cx="105.173" cy="67.2704" r="24.079" fill="#575757"/>
<circle cx="72.8855" cy="72.198" r="32.2878" fill="#D9D9D9"/>
<circle cx="54.2785" cy="55.7824" r="1.64175" fill="#575757"/>
<circle cx="65.2238" cy="55.7824" r="1.64175" fill="#575757"/>
<circle cx="90.9449" cy="48.6636" r="16.4175" fill="#575757"/>
<circle cx="104.625" cy="64.5352" r="11.4923" fill="#575757"/>
<rect x="48.2581" y="30.0586" width="29.5515" height="15.323" rx="7.66151" fill="#ABABAB"/>
<circle cx="70.149" cy="37.7233" r="6.56701" fill="#D9D9D9"/>
<path d="M54.6328 62.4414C55.5236 63.9138 58.5268 65.9753 63.4133 62.4414" stroke="#575757" stroke-width="1.95122" stroke-linecap="round"/>
</g>
</svg>
