<svg  viewBox="0 0 50 50" fill="none" xmlns="http://www.w3.org/2000/svg">
<path d="M20.9517 17.7407C21.7263 18.0982 21.7263 19.1991 20.9517 19.5566L15.9056 21.8856C15.243 22.1914 14.4865 21.7074 14.4865 20.9776L14.4865 16.3197C14.4865 15.5899 15.243 15.1059 15.9056 15.4117L20.9517 17.7407Z" fill="black"/>
<line x1="17.7028" y1="18.6757" x2="7.05411" y2="18.6757" stroke="black" stroke-width="2" stroke-linecap="round"/>
<path d="M22.9189 31.3242H6.05371C5.50159 31.324 5.05371 30.8764 5.05371 30.3242C5.05377 29.7721 5.50163 29.3244 6.05371 29.3242H22.9189V31.3242ZM23.0811 5C25.29 5.00017 27.0811 6.79097 27.0811 9V19.6221H25.9189C25.6279 19.6221 25.3471 19.6649 25.0811 19.7422V9C25.0811 7.89554 24.1855 7.00017 23.0811 7H6.05371C5.50159 6.9998 5.05371 6.55216 5.05371 6C5.05371 5.44784 5.50159 5.0002 6.05371 5H23.0811Z" fill="black"/>
<path d="M42.9459 43.9459L25.9189 43.9459C24.262 43.9459 22.9189 42.6028 22.9189 40.9459L22.9189 22.6216C22.9189 20.9648 24.262 19.6216 25.9189 19.6216L42.9459 19.6216" stroke="black" stroke-width="2" stroke-linecap="round"/>
<path d="M28.0483 32.2053C27.2737 31.8478 27.2737 30.7468 28.0483 30.3893L33.0944 28.0604C33.757 27.7545 34.5135 28.2385 34.5135 28.9683L34.5135 33.6263C34.5135 34.3561 33.757 34.8401 33.0944 34.5342L28.0483 32.2053Z" fill="black"/>
<line x1="31.2972" y1="31.2703" x2="41.9459" y2="31.2703" stroke="black" stroke-width="2" stroke-linecap="round"/>
</svg>
