<svg viewBox="0 0 50 50" fill="none" xmlns="http://www.w3.org/2000/svg">
<rect width="50" height="50" fill="none"/>
<path d="M41.6641 16.5039C42.4987 17.0603 43 17.997 43 19.0001V41.3945C43 43.0514 41.6569 44.3945 40 44.3945H33C31.3431 44.3945 30 43.0514 30 41.3945V32.3945C30 30.7377 28.6569 29.3945 27 29.3945H23C21.3431 29.3945 20 30.7377 20 32.3945V41.3945C20 43.0514 18.6569 44.3945 17 44.3945H10C8.34315 44.3945 7 43.0514 7 41.3945V19.0001C7 17.997 7.5013 17.0603 8.3359 16.5039L23.3359 6.50393C24.3436 5.83213 25.6564 5.83213 26.6641 6.50393L41.6641 16.5039Z" fill="currentColor"/>
</svg>
