<svg viewBox="0 0 120 31" fill="none" xmlns="http://www.w3.org/2000/svg">
<g clip-path="url(#clip0_6413_15239)">
<path d="M54.757 10.2439C54.757 8.72187 54.3145 7.23388 53.4852 5.96747C52.6558 4.70107 51.4769 3.71291 50.0968 3.12751V0.162354H45.4366V2.74796C43.9842 3.09674 42.6656 3.87529 41.6469 4.98552C40.6283 6.09574 39.9551 7.488 39.7122 8.98696C39.4693 10.4859 39.6675 12.0245 40.2819 13.409C40.8963 14.7935 41.8993 15.962 43.1648 16.7672C41.7717 17.6554 40.7002 18.981 40.1123 20.5437C39.5244 22.1064 39.4519 23.8214 39.9058 25.4298C40.3597 27.0382 41.3153 28.4525 42.6283 29.4593C43.9413 30.466 45.5404 31.0105 47.1842 31.0105C48.828 31.0105 50.4271 30.466 51.7401 29.4593C53.0531 28.4525 54.0087 27.0382 54.4626 25.4298C54.9165 23.8214 54.844 22.1064 54.2561 20.5437C53.6681 18.981 52.5967 17.6554 51.2036 16.7672C52.2904 16.0756 53.1868 15.1141 53.8083 13.973C54.4299 12.8319 54.7564 11.5487 54.757 10.2439ZM47.1842 7.27874C47.7603 7.27874 48.3234 7.45264 48.8024 7.77846C49.2813 8.10427 49.6546 8.56738 49.8751 9.10919C50.0955 9.65101 50.1532 10.2472 50.0409 10.8224C49.9285 11.3976 49.6511 11.9259 49.2437 12.3406C48.8364 12.7553 48.3174 13.0377 47.7524 13.1521C47.1874 13.2665 46.6018 13.2078 46.0696 12.9833C45.5374 12.7589 45.0825 12.3789 44.7624 11.8912C44.4424 11.4036 44.2716 10.8303 44.2716 10.2439C44.2716 9.45749 44.5784 8.70329 45.1247 8.14722C45.6709 7.59114 46.4117 7.27874 47.1842 7.27874ZM47.1842 26.2558C46.6081 26.2558 46.045 26.0819 45.566 25.756C45.087 25.4302 44.7137 24.9671 44.4933 24.4253C44.2728 23.8835 44.2152 23.2873 44.3275 22.7121C44.4399 22.1369 44.7173 21.6086 45.1247 21.1939C45.532 20.7792 46.051 20.4968 46.616 20.3824C47.181 20.268 47.7666 20.3267 48.2988 20.5512C48.831 20.7756 49.2859 21.1556 49.606 21.6433C49.926 22.1309 50.0968 22.7041 50.0968 23.2906C50.0968 24.077 49.7899 24.8312 49.2437 25.3873C48.6975 25.9434 47.9567 26.2558 47.1842 26.2558Z" fill="#FD7E35"/>
<path d="M71.0675 10.2438C71.0675 8.71905 70.6234 7.22852 69.7912 5.96071C68.9591 4.6929 67.7765 3.70477 66.3927 3.12126C65.009 2.53775 63.4863 2.3851 62.0173 2.68257C60.5483 2.98004 59.199 3.71427 58.1399 4.79246C57.0808 5.87064 56.3596 7.24431 56.0674 8.73979C55.7752 10.2353 55.9252 11.7854 56.4983 13.1941C57.0715 14.6028 58.0421 15.8068 59.2875 16.654C60.5328 17.5011 61.9969 17.9532 63.4947 17.9532C64.9377 17.9653 66.3535 17.5535 67.5724 16.7672V17.9532H72.2326V13.209H70.485C70.8701 12.2696 71.0681 11.2617 71.0675 10.2438ZM63.4947 13.209C62.9186 13.209 62.3555 13.0351 61.8765 12.7093C61.3975 12.3835 61.0242 11.9203 60.8038 11.3785C60.5833 10.8367 60.5257 10.2405 60.638 9.66535C60.7504 9.09017 61.0278 8.56184 61.4352 8.14715C61.8425 7.73247 62.3615 7.45006 62.9265 7.33564C63.4915 7.22123 64.0771 7.27996 64.6093 7.50439C65.1415 7.72882 65.5964 8.10887 65.9165 8.59649C66.2365 9.08411 66.4073 9.65738 66.4073 10.2438C66.4073 11.0302 66.1004 11.7844 65.5542 12.3405C65.008 12.8966 64.2672 13.209 63.4947 13.209Z" fill="#FD7E35"/>
<path d="M94.9517 2.53442C93.454 2.53442 91.9898 2.98659 90.7445 3.83371C89.4991 4.68083 88.5285 5.88484 87.9553 7.29356C87.3822 8.70227 87.2322 10.2524 87.5244 11.7479C87.8166 13.2434 88.5379 14.617 89.5969 15.6952C90.656 16.7734 92.0053 17.5076 93.4743 17.8051C94.9433 18.1026 96.466 17.9499 97.8497 17.3664C99.2335 16.7829 100.416 15.7948 101.248 14.527C102.08 13.2592 102.525 11.7686 102.525 10.2438C102.521 8.20014 101.723 6.24105 100.303 4.79594C98.8836 3.35082 96.9592 2.53756 94.9517 2.53442ZM94.9517 13.209C94.3757 13.209 93.8125 13.0351 93.3336 12.7093C92.8546 12.3835 92.4813 11.9204 92.2608 11.3785C92.0404 10.8367 91.9827 10.2405 92.0951 9.66536C92.2074 9.09017 92.4848 8.56185 92.8922 8.14716C93.2995 7.73248 93.8185 7.45006 94.3835 7.33565C94.9485 7.22124 95.5341 7.27997 96.0663 7.5044C96.5985 7.72882 97.0534 8.10888 97.3735 8.5965C97.6935 9.08411 97.8643 9.65739 97.8643 10.2438C97.8643 11.0302 97.5575 11.7844 97.0112 12.3405C96.465 12.8966 95.7242 13.209 94.9517 13.209Z" fill="#FD7E35"/>
<path d="M30.8736 2.53442C29.3758 2.53442 27.9117 2.98659 26.6664 3.83371C25.421 4.68083 24.4504 5.88484 23.8772 7.29356C23.3041 8.70227 23.1541 10.2524 23.4463 11.7479C23.7385 13.2434 24.4597 14.617 25.5188 15.6952C26.5779 16.7734 27.9272 17.5076 29.3962 17.8051C30.8652 18.1026 32.3878 17.9499 33.7716 17.3664C35.1553 16.7829 36.3381 15.7948 37.1702 14.527C38.0023 13.2592 38.4464 11.7686 38.4464 10.2438C38.4433 8.20014 37.6445 6.24105 36.225 4.79594C34.8055 3.35082 32.8811 2.53756 30.8736 2.53442ZM30.8736 13.209C30.2975 13.209 29.7344 13.0351 29.2554 12.7093C28.7765 12.3835 28.4031 11.9204 28.1827 11.3785C27.9622 10.8367 27.9046 10.2405 28.0169 9.66536C28.1293 9.09017 28.4067 8.56185 28.8141 8.14716C29.2214 7.73248 29.7404 7.45006 30.3054 7.33565C30.8704 7.22124 31.456 7.27997 31.9882 7.5044C32.5204 7.72882 32.9753 8.10888 33.2954 8.5965C33.6154 9.08411 33.7862 9.65739 33.7862 10.2438C33.7862 11.0302 33.4794 11.7844 32.9331 12.3405C32.3869 12.8966 31.6461 13.209 30.8736 13.209Z" fill="#FD7E35"/>
<path d="M85.9344 4.90661H87.379V0.162354H73.3984V4.90661H80.3072L74.7848 13.2091H73.3984V17.9533H87.379V13.2091H80.412L85.9344 4.90661Z" fill="#FD7E35"/>
<path d="M118.251 13.209C118.945 11.4977 119.013 9.5902 118.443 7.83215C117.874 6.07409 116.705 4.58173 115.148 3.6254C113.592 2.66907 111.75 2.31202 109.957 2.61894C108.164 2.92586 106.538 3.87646 105.374 5.29851C104.21 6.72057 103.584 8.52006 103.611 10.371C103.638 12.2219 104.315 14.0017 105.52 15.3882C106.725 16.7747 108.377 17.6761 110.178 17.9291C111.98 18.182 113.81 17.7699 115.339 16.7672V17.9533H119.999V13.209H118.251ZM111.261 13.209C110.685 13.209 110.122 13.0351 109.643 12.7093C109.164 12.3835 108.791 11.9204 108.57 11.3786C108.35 10.8368 108.292 10.2406 108.405 9.66539C108.517 9.09021 108.794 8.56188 109.202 8.14719C109.609 7.73251 110.128 7.4501 110.693 7.33568C111.258 7.22127 111.844 7.28 112.376 7.50443C112.908 7.72886 113.363 8.10891 113.683 8.59653C114.003 9.08415 114.174 9.65742 114.174 10.2439C114.174 11.0303 113.867 11.7845 113.321 12.3405C112.774 12.8966 112.034 13.209 111.261 13.209Z" fill="#FD7E35"/>
<path d="M15.6233 0.162394C13.918 0.156284 12.2799 0.838716 11.068 2.0601C9.85606 0.838716 8.21792 0.156284 6.51262 0.162394C4.78536 0.162394 3.12885 0.860914 1.9075 2.1043C0.686143 3.34768 0 5.03408 0 6.79249V17.9534H4.66019V6.79249C4.66019 6.29233 4.85536 5.81266 5.20275 5.459C5.55015 5.10533 6.02132 4.90665 6.51262 4.90665C7.00391 4.90665 7.47508 5.10533 7.82248 5.459C8.16988 5.81266 8.36504 6.29233 8.36504 6.79249V17.9534H13.7709V6.79249C13.7709 6.29233 13.966 5.81266 14.3134 5.459C14.6608 5.10533 15.132 4.90665 15.6233 4.90665C16.1146 4.90665 16.5858 5.10533 16.9332 5.459C17.2806 5.81266 17.4757 6.29233 17.4757 6.79249V17.9534H22.1359V6.79249C22.1359 5.03408 21.4498 3.34768 20.2284 2.1043C19.0071 0.860914 17.3506 0.162394 15.6233 0.162394Z" fill="#FD7E35"/>
</g>
<defs>
<clipPath id="clip0_6413_15239">
<rect width="120" height="30.8377" fill="white" transform="translate(0 0.162354)"/>
</clipPath>
</defs>
</svg>
