<svg viewBox="0 0 50 50" fill="none" xmlns="http://www.w3.org/2000/svg">
<rect fill="white"/>
<path d="M5 6H23.0811C24.7379 6 26.0811 7.34315 26.0811 9V27.3243C26.0811 28.9812 24.7379 30.3243 23.0811 30.3243H5V6Z" fill="white"/>
<path d="M6.05408 6H23.0811C24.738 6 26.0811 7.34315 26.0811 9V27.3243C26.0811 28.9812 24.738 30.3243 23.0811 30.3243H6.05408" stroke="currentColor" stroke-width="2" stroke-linecap="round"/>
<path d="M20.9517 17.7407C21.7263 18.0982 21.7263 19.1991 20.9517 19.5566L15.9056 21.8856C15.243 22.1914 14.4865 21.7074 14.4865 20.9776L14.4865 16.3197C14.4865 15.5899 15.243 15.1059 15.9056 15.4117L20.9517 17.7407Z" fill="currentColor"/>
<line x1="17.7028" y1="18.6757" x2="7.05411" y2="18.6757" stroke="currentColor" stroke-width="2" stroke-linecap="round"/>
<path d="M44 43.9459L25.9189 43.9459C24.2621 43.9459 22.9189 42.6028 22.9189 40.9459L22.9189 22.6216C22.9189 20.9648 24.2621 19.6216 25.9189 19.6216L44 19.6216L44 43.9459Z" fill="white"/>
<path d="M42.9459 43.9459L25.9189 43.9459C24.262 43.9459 22.9189 42.6028 22.9189 40.9459L22.9189 22.6216C22.9189 20.9648 24.262 19.6216 25.9189 19.6216L42.9459 19.6216" stroke="currentColor" stroke-width="2" stroke-linecap="round"/>
<path d="M28.0483 32.2053C27.2737 31.8478 27.2737 30.7468 28.0483 30.3893L33.0944 28.0604C33.757 27.7545 34.5135 28.2385 34.5135 28.9683L34.5135 33.6263C34.5135 34.3561 33.757 34.8401 33.0944 34.5342L28.0483 32.2053Z" fill="currentColor"/>
<line x1="31.2972" y1="31.2703" x2="41.9459" y2="31.2703" stroke="currentColor" stroke-width="2" stroke-linecap="round"/>
</svg>
