<svg viewBox="0 0 50 50" fill="none" xmlns="http://www.w3.org/2000/svg">
<mask id="path-1-inside-1_132_5" fill="white">
<path d="M41.6641 16.5039C42.4987 17.0603 43 17.997 43 19.0001V41.3945C43 43.0514 41.6569 44.3945 40 44.3945H33C31.3431 44.3945 30 43.0514 30 41.3945V32.3945C30 30.7377 28.6569 29.3945 27 29.3945H23C21.3431 29.3945 20 30.7377 20 32.3945V41.3945C20 43.0514 18.6569 44.3945 17 44.3945H10C8.34315 44.3945 7 43.0514 7 41.3945V19.0001C7 17.997 7.5013 17.0603 8.3359 16.5039L23.3359 6.50393C24.3436 5.83213 25.6564 5.83213 26.6641 6.50393L41.6641 16.5039Z"/>
</mask>
<path d="M41.6641 16.5039L40.5547 18.168L41.6641 16.5039ZM43 19.0001H41V41.3945H43H45V19.0001H43ZM40 44.3945V42.3945H33V44.3945V46.3945H40V44.3945ZM30 41.3945H32V32.3945H30H28V41.3945H30ZM27 29.3945V27.3945H23V29.3945V31.3945H27V29.3945ZM20 32.3945H18V41.3945H20H22V32.3945H20ZM17 44.3945V42.3945H10V44.3945V46.3945H17V44.3945ZM7 41.3945H9V19.0001H7H5V41.3945H7ZM8.3359 16.5039L9.4453 18.168L24.4453 8.16803L23.3359 6.50393L22.2265 4.83983L7.2265 14.8398L8.3359 16.5039ZM26.6641 6.50393L25.5547 8.16803L40.5547 18.168L41.6641 16.5039L42.7735 14.8398L27.7735 4.83983L26.6641 6.50393ZM23.3359 6.50393L24.4453 8.16803C24.7812 7.9441 25.2188 7.9441 25.5547 8.16803L26.6641 6.50393L27.7735 4.83983C26.094 3.72017 23.906 3.72017 22.2265 4.83983L23.3359 6.50393ZM7 19.0001H9C9 18.6657 9.1671 18.3535 9.4453 18.168L8.3359 16.5039L7.2265 14.8398C5.83551 15.7672 5 17.3283 5 19.0001H7ZM10 44.3945V42.3945C9.44772 42.3945 9 41.9468 9 41.3945H7H5C5 44.156 7.23858 46.3945 10 46.3945V44.3945ZM20 41.3945H18C18 41.9468 17.5523 42.3945 17 42.3945V44.3945V46.3945C19.7614 46.3945 22 44.156 22 41.3945H20ZM23 29.3945V27.3945C20.2386 27.3945 18 29.6331 18 32.3945H20H22C22 31.8422 22.4477 31.3945 23 31.3945V29.3945ZM30 32.3945H32C32 29.6331 29.7614 27.3945 27 27.3945V29.3945V31.3945C27.5523 31.3945 28 31.8422 28 32.3945H30ZM33 44.3945V42.3945C32.4477 42.3945 32 41.9468 32 41.3945H30H28C28 44.156 30.2386 46.3945 33 46.3945V44.3945ZM43 41.3945H41C41 41.9468 40.5523 42.3945 40 42.3945V44.3945V46.3945C42.7614 46.3945 45 44.156 45 41.3945H43ZM43 19.0001H45C45 17.3283 44.1645 15.7672 42.7735 14.8398L41.6641 16.5039L40.5547 18.168C40.8329 18.3535 41 18.6657 41 19.0001H43Z" fill="black" mask="url(#path-1-inside-1_132_5)"/>
</svg>
