<svg viewBox="0 0 100 100" fill="none" xmlns="http://www.w3.org/2000/svg">
<path d="M56.5 14.5C65.6274 14.5 73.1211 21.4877 73.9268 30.4053C79.8548 33.0233 84 39.0199 84 46C84 51.7097 81.2258 56.7609 76.9717 59.8438C76.9895 60.1436 77 60.4457 77 60.75C77 69.1352 70.1215 75.9381 61.6133 75.998L55.374 87.2627C54.2319 89.3242 51.2681 89.3242 50.126 87.2627L45.9619 79.7461C44.5084 80.0028 43.0127 80.1387 41.4863 80.1387C27.2511 80.1384 15.7112 68.4977 15.7109 54.1387C15.7109 50.1783 16.5901 46.425 18.1602 43.0654C16.5065 41.254 15.5 38.8673 15.5 36.25C15.5 30.5891 20.201 26 26 26C26.1134 26 26.2263 26.0043 26.3389 26.0078C27.6643 20.2704 32.7183 16 38.75 16C41.3519 16 43.771 16.7959 45.7881 18.1602C48.7483 15.8656 52.4647 14.5 56.5 14.5Z" fill="url(#paint0_linear_6413_15278)"/>
<circle cx="30.25" cy="53.25" r="3.25" fill="white"/>
<circle cx="42.75" cy="53.25" r="3.25" fill="white"/>
<defs>
<linearGradient id="paint0_linear_6413_15278" x1="19.3878" y1="20.0462" x2="74.6432" y2="81.4152" gradientUnits="userSpaceOnUse">
<stop stop-color="#FFD06C"/>
<stop offset="1" stop-color="#FF3647"/>
</linearGradient>
</defs>
</svg>
