<svg class="w-full h-full" viewBox="0 0 29 29" fill="none" xmlns="http://www.w3.org/2000/svg">
<path d="M25 11.8742H24.0845C23.8647 9.48418 22.7598 7.26257 20.9867 5.64506C19.2136 4.02755 16.9001 3.13086 14.5 3.13086C12.0999 3.13086 9.78645 4.02755 8.01331 5.64506C6.24017 7.26257 5.13533 9.48418 4.91547 11.8742H4C3.76794 11.8742 3.54538 11.9664 3.38128 12.1304C3.21719 12.2945 3.125 12.5171 3.125 12.7492C3.12884 14.83 3.70151 16.8703 4.78106 18.6492C5.86061 20.4282 7.40596 21.8781 9.25 22.8423V23.2492C9.25 23.7133 9.43437 24.1584 9.76256 24.4866C10.0908 24.8148 10.5359 24.9992 11 24.9992H18C18.4641 24.9992 18.9092 24.8148 19.2374 24.4866C19.5656 24.1584 19.75 23.7133 19.75 23.2492V22.8423C21.594 21.8781 23.1394 20.4282 24.2189 18.6492C25.2985 16.8703 25.8712 14.83 25.875 12.7492C25.875 12.5171 25.7828 12.2945 25.6187 12.1304C25.4546 11.9664 25.2321 11.8742 25 11.8742ZM19.4744 6.64932C19.6749 6.81338 19.867 6.98656 20.0508 7.16885C17.7215 7.98824 15.7966 9.67223 14.675 11.872H11.4484C11.9953 10.339 13.0021 9.01226 14.3314 8.073C15.6606 7.13373 17.2474 6.62774 18.875 6.62416C19.0752 6.62416 19.2753 6.63401 19.4744 6.64932ZM16.7006 11.8742C17.7615 10.2826 19.3664 9.13269 21.2145 8.63995C21.8188 9.62285 22.1979 10.7274 22.3247 11.8742H16.7006ZM14.5 4.87416C15.2022 4.87463 15.9011 4.96917 16.5781 5.15526C14.9292 5.56429 13.4173 6.40075 12.1947 7.58034C10.9721 8.75993 10.082 10.241 9.61422 11.8742H6.67531C6.89236 9.95011 7.80988 8.17321 9.25296 6.88223C10.696 5.59124 12.5637 4.87647 14.5 4.87416Z" fill="currentColor"/>
</svg>
