<svg class="w-full h-full" viewBox="0 0 29 29" fill="none" xmlns="http://www.w3.org/2000/svg">
<g clip-path="url(#clip0_8445_24788)">
<path d="M25.5086 14.6217L22.4395 13.599C22.3464 13.5666 22.245 13.5666 22.1519 13.599L17.4236 15.3184C17.3281 15.3543 17.2271 15.3736 17.125 15.3753C16.9334 15.3752 16.7472 15.3122 16.5948 15.196C16.4425 15.0799 16.3325 14.9169 16.2817 14.7322C16.2265 14.5155 16.2545 14.286 16.3602 14.089C16.4659 13.892 16.6416 13.7417 16.8527 13.6679L18.875 12.9329C18.9293 12.9134 18.9762 12.8773 19.0091 12.8299C19.042 12.7824 19.0593 12.7259 19.0586 12.6681C19.0579 12.6104 19.0392 12.5543 19.0051 12.5076C18.971 12.461 18.9232 12.4262 18.8684 12.4079C18.5099 12.2883 18.1815 12.0924 17.9059 11.8337C17.8471 11.7758 17.773 11.7357 17.6923 11.718C17.6116 11.7004 17.5275 11.706 17.4498 11.7342L14.8008 12.6967C14.6873 12.7379 14.5666 12.7551 14.4461 12.7474C14.3257 12.7396 14.2082 12.707 14.1009 12.6517C13.9937 12.5963 13.899 12.5193 13.823 12.4256C13.7469 12.3319 13.691 12.2235 13.6589 12.1072C13.6037 11.8905 13.6317 11.661 13.7374 11.464C13.8431 11.267 14.0188 11.1167 14.2298 11.0429L16.4688 10.227C16.5248 10.2067 16.576 10.1751 16.6194 10.1343C16.6628 10.0934 16.6974 10.0441 16.721 9.98946C16.7447 9.93477 16.7569 9.87583 16.757 9.81624C16.757 9.75666 16.7449 9.69768 16.7214 9.64294L16.3867 8.85982C16.3428 8.75678 16.2611 8.6745 16.1583 8.62994C16.0555 8.58538 15.9396 8.58192 15.8344 8.62029L13.0453 9.6342C12.9319 9.67536 12.8111 9.69262 12.6907 9.68487C12.5702 9.67712 12.4527 9.64454 12.3454 9.58917C12.2382 9.5338 12.1436 9.45684 12.0675 9.36314C11.9914 9.26943 11.9356 9.161 11.9034 9.04466C11.8482 8.82801 11.8762 8.59852 11.9819 8.4015C12.0876 8.20449 12.2633 8.05425 12.4744 7.98044L15.0994 7.0256C15.1552 7.00526 15.2064 6.97374 15.2497 6.93297C15.293 6.8922 15.3275 6.84303 15.3511 6.78847C15.3748 6.73392 15.387 6.67511 15.3872 6.61565C15.3874 6.55618 15.3754 6.49731 15.352 6.44263L14.7614 5.05029C14.7614 5.05029 14.7614 5.04263 14.7614 5.03935C14.5806 4.63389 14.2525 4.31228 13.8435 4.13966C13.4345 3.96705 12.9752 3.95632 12.5586 4.10966L4.27672 7.11638C3.93955 7.23988 3.64836 7.46379 3.44242 7.75794C3.23648 8.05209 3.12569 8.40231 3.125 8.76138V21.5003C3.125 21.9644 3.30937 22.4095 3.63756 22.7377C3.96575 23.0659 4.41087 23.2503 4.875 23.2503H26.75C27.2141 23.2503 27.6592 23.0659 27.9874 22.7377C28.3156 22.4095 28.5 21.9644 28.5 21.5003V18.7725C28.5001 17.8542 28.2112 16.9592 27.6743 16.2142C27.1374 15.4692 26.3797 14.9121 25.5086 14.6217ZM26.75 21.5003H4.875V19.7503H26.75V21.5003Z" fill="currentColor"/>
</g>
<defs>
<clipPath id="clip0_8445_24788">
<rect width="28" height="28" fill="white" transform="translate(0.5 0.5)"/>
</clipPath>
</defs>
</svg>
