<svg class="w-full h-full" viewBox="0 0 29 29" fill="none" xmlns="http://www.w3.org/2000/svg">
<path d="M13.625 6.625V11.875C13.625 12.3391 13.4406 12.7842 13.1124 13.1124C12.7842 13.4406 12.3391 13.625 11.875 13.625H6.625C6.16087 13.625 5.71575 13.4406 5.38756 13.1124C5.05937 12.7842 4.875 12.3391 4.875 11.875V6.625C4.875 6.16087 5.05937 5.71575 5.38756 5.38756C5.71575 5.05937 6.16087 4.875 6.625 4.875H11.875C12.3391 4.875 12.7842 5.05937 13.1124 5.38756C13.4406 5.71575 13.625 6.16087 13.625 6.625ZM22.375 4.875H17.125C16.6609 4.875 16.2158 5.05937 15.8876 5.38756C15.5594 5.71575 15.375 6.16087 15.375 6.625V11.875C15.375 12.3391 15.5594 12.7842 15.8876 13.1124C16.2158 13.4406 16.6609 13.625 17.125 13.625H22.375C22.8391 13.625 23.2842 13.4406 23.6124 13.1124C23.9406 12.7842 24.125 12.3391 24.125 11.875V6.625C24.125 6.16087 23.9406 5.71575 23.6124 5.38756C23.2842 5.05937 22.8391 4.875 22.375 4.875ZM11.875 15.375H6.625C6.16087 15.375 5.71575 15.5594 5.38756 15.8876C5.05937 16.2158 4.875 16.6609 4.875 17.125V22.375C4.875 22.8391 5.05937 23.2842 5.38756 23.6124C5.71575 23.9406 6.16087 24.125 6.625 24.125H11.875C12.3391 24.125 12.7842 23.9406 13.1124 23.6124C13.4406 23.2842 13.625 22.8391 13.625 22.375V17.125C13.625 16.6609 13.4406 16.2158 13.1124 15.8876C12.7842 15.5594 12.3391 15.375 11.875 15.375ZM22.375 15.375H17.125C16.6609 15.375 16.2158 15.5594 15.8876 15.8876C15.5594 16.2158 15.375 16.6609 15.375 17.125V22.375C15.375 22.8391 15.5594 23.2842 15.8876 23.6124C16.2158 23.9406 16.6609 24.125 17.125 24.125H22.375C22.8391 24.125 23.2842 23.9406 23.6124 23.6124C23.9406 23.2842 24.125 22.8391 24.125 22.375V17.125C24.125 16.6609 23.9406 16.2158 23.6124 15.8876C23.2842 15.5594 22.8391 15.375 22.375 15.375Z" fill="currentColor"/>
</svg>
