<svg class="w-full h-full" viewBox="0 0 29 29" fill="none" xmlns="http://www.w3.org/2000/svg">
<path d="M17.5953 11C17.2873 11.5318 17.125 12.1354 17.125 12.75C17.125 13.3646 17.2873 13.9682 17.5953 14.5H11.4047C11.7127 13.9682 11.875 13.3646 11.875 12.75C11.875 12.1354 11.7127 11.5318 11.4047 11H17.5953ZM8.375 11C8.02888 11 7.69054 11.1026 7.40275 11.2949C7.11497 11.4872 6.89066 11.7605 6.75821 12.0803C6.62576 12.4001 6.5911 12.7519 6.65863 13.0914C6.72615 13.4309 6.89282 13.7427 7.13756 13.9874C7.38231 14.2322 7.69413 14.3989 8.03359 14.4664C8.37306 14.5339 8.72493 14.4992 9.0447 14.3668C9.36447 14.2343 9.63778 14.01 9.83007 13.7222C10.0224 13.4345 10.125 13.0961 10.125 12.75C10.125 12.2859 9.94063 11.8408 9.61244 11.5126C9.28425 11.1844 8.83913 11 8.375 11ZM26.75 7.5V21.5C26.75 21.9641 26.5656 22.4092 26.2374 22.7374C25.9092 23.0656 25.4641 23.25 25 23.25H4C3.53587 23.25 3.09075 23.0656 2.76256 22.7374C2.43437 22.4092 2.25 21.9641 2.25 21.5V7.5C2.25 7.03587 2.43437 6.59075 2.76256 6.26256C3.09075 5.93437 3.53587 5.75 4 5.75H25C25.4641 5.75 25.9092 5.93437 26.2374 6.26256C26.5656 6.59075 26.75 7.03587 26.75 7.5ZM20.8438 21.5L19.1375 19.225C19.056 19.1163 18.9503 19.0281 18.8288 18.9674C18.7073 18.9066 18.5733 18.875 18.4375 18.875H10.5625C10.4267 18.875 10.2927 18.9066 10.1712 18.9674C10.0497 19.0281 9.944 19.1163 9.8625 19.225L8.15625 21.5H20.8438ZM24.125 12.75C24.125 11.8217 23.7563 10.9315 23.0999 10.2751C22.4435 9.61875 21.5533 9.25 20.625 9.25H8.375C7.44674 9.25 6.5565 9.61875 5.90013 10.2751C5.24375 10.9315 4.875 11.8217 4.875 12.75C4.875 13.6783 5.24375 14.5685 5.90013 15.2249C6.5565 15.8813 7.44674 16.25 8.375 16.25H20.625C21.5533 16.25 22.4435 15.8813 23.0999 15.2249C23.7563 14.5685 24.125 13.6783 24.125 12.75ZM20.625 11C20.2789 11 19.9405 11.1026 19.6528 11.2949C19.365 11.4872 19.1407 11.7605 19.0082 12.0803C18.8758 12.4001 18.8411 12.7519 18.9086 13.0914C18.9762 13.4309 19.1428 13.7427 19.3876 13.9874C19.6323 14.2322 19.9441 14.3989 20.2836 14.4664C20.6231 14.5339 20.9749 14.4992 21.2947 14.3668C21.6145 14.2343 21.8878 14.01 22.0801 13.7222C22.2724 13.4345 22.375 13.0961 22.375 12.75C22.375 12.2859 22.1906 11.8408 21.8624 11.5126C21.5342 11.1844 21.0891 11 20.625 11Z" fill="currentColor"/>
</svg>
