<svg viewBox="0 0 14 15" xmlns="http://www.w3.org/2000/svg">
<path d="M3.50008 13.3327H2.33341C1.68908 13.3327 1.16675 12.8103 1.16675 12.166V8.08268C1.16675 7.43835 1.68908 6.91602 2.33341 6.91602H3.50008V13.3327Z"/>
<path d="M6.41675 1.66602C6.88088 1.66602 7.32586 1.85052 7.65405 2.17871C7.98224 2.5069 8.16675 2.95189 8.16675 3.41602V5.74935H11.4685C11.6376 5.74745 11.8053 5.78208 11.9596 5.85132C12.1138 5.92054 12.2508 6.02286 12.3617 6.15039C12.4727 6.27801 12.555 6.42832 12.6021 6.59074C12.6492 6.75309 12.6605 6.92377 12.6352 7.0909L11.8302 12.3409C11.7881 12.6191 11.6464 12.873 11.432 13.0553C11.2177 13.2373 10.9448 13.3358 10.6636 13.3327H4.08341V6.91602L6.41675 1.66602Z"/>
</svg>
