<svg class="w-full h-full" viewBox="0 0 29 29" fill="none" xmlns="http://www.w3.org/2000/svg">
<path d="M2.25 11.4375V8.375C2.25 7.91087 2.43437 7.46575 2.76256 7.13756C3.09075 6.80937 3.53587 6.625 4 6.625H13.1875C13.3035 6.625 13.4148 6.67109 13.4969 6.75314C13.5789 6.83519 13.625 6.94647 13.625 7.0625V15.375H7.5C7.5 14.4467 7.13125 13.5565 6.47487 12.9001C5.8185 12.2437 4.92826 11.875 4 11.875H2.6875C2.57147 11.875 2.46019 11.8289 2.37814 11.7469C2.29609 11.6648 2.25 11.5535 2.25 11.4375ZM25 11.875H26.3125C26.4285 11.875 26.5398 11.8289 26.6219 11.7469C26.7039 11.6648 26.75 11.5535 26.75 11.4375V8.375C26.75 7.91087 26.5656 7.46575 26.2374 7.13756C25.9092 6.80937 25.4641 6.625 25 6.625H15.8125C15.6965 6.625 15.5852 6.67109 15.5031 6.75314C15.4211 6.83519 15.375 6.94647 15.375 7.0625V15.375H21.5C21.5 14.4467 21.8687 13.5565 22.5251 12.9001C23.1815 12.2437 24.0717 11.875 25 11.875ZM25.875 13.625H25C24.5359 13.625 24.0908 13.8094 23.7626 14.1376C23.4344 14.4658 23.25 14.9109 23.25 15.375V16.25C23.25 16.4821 23.1578 16.7046 22.9937 16.8687C22.8296 17.0328 22.6071 17.125 22.375 17.125H6.625C6.39294 17.125 6.17038 17.0328 6.00628 16.8687C5.84219 16.7046 5.75 16.4821 5.75 16.25V15.375C5.75 14.9109 5.56563 14.4658 5.23744 14.1376C4.90925 13.8094 4.46413 13.625 4 13.625H3.125C2.66087 13.625 2.21575 13.8094 1.88756 14.1376C1.55937 14.4658 1.375 14.9109 1.375 15.375V18.875C1.375 19.3391 1.55937 19.7842 1.88756 20.1124C2.21575 20.4406 2.66087 20.625 3.125 20.625H4V22.3455C3.99666 22.5716 4.07907 22.7906 4.23065 22.9584C4.38223 23.1262 4.59174 23.2304 4.81703 23.25C4.93672 23.2579 5.05676 23.2412 5.16971 23.2008C5.28265 23.1604 5.38608 23.0972 5.47358 23.0152C5.56107 22.9331 5.63076 22.8339 5.67831 22.7238C5.72586 22.6137 5.75026 22.495 5.75 22.375V20.625H23.25V22.3455C23.247 22.5713 23.3295 22.7899 23.4811 22.9573C23.6327 23.1247 23.842 23.2285 24.067 23.2478C24.1867 23.2558 24.3068 23.239 24.4197 23.1986C24.5327 23.1582 24.6361 23.095 24.7236 23.013C24.8111 22.9309 24.8808 22.8317 24.9283 22.7216C24.9759 22.6115 25.0003 22.4928 25 22.3728V20.625H25.875C26.3391 20.625 26.7842 20.4406 27.1124 20.1124C27.4406 19.7842 27.625 19.3391 27.625 18.875V15.375C27.625 14.9109 27.4406 14.4658 27.1124 14.1376C26.7842 13.8094 26.3391 13.625 25.875 13.625Z" fill="currentColor"/>
</svg>
