<svg class="w-full h-full" viewBox="0 0 29 29" fill="none" xmlns="http://www.w3.org/2000/svg">
<path d="M25.8752 4C25.8752 3.76794 25.783 3.54538 25.6189 3.38128C25.4548 3.21719 25.2323 3.125 25.0002 3.125C20.179 3.125 15.2319 8.56203 12.4844 12.1627C11.5032 11.8621 10.4652 11.7959 9.4537 11.9694C8.44223 12.1428 7.48554 12.551 6.66046 13.1612C5.83537 13.7715 5.1649 14.5667 4.70289 15.483C4.24088 16.3994 4.00021 17.4113 4.00022 18.4375C4.00022 21.815 1.86303 23.3298 1.76131 23.3998C1.6061 23.5047 1.4886 23.6565 1.42612 23.8331C1.36363 24.0096 1.35944 24.2016 1.41416 24.3807C1.46889 24.5598 1.57964 24.7166 1.73014 24.8281C1.88063 24.9396 2.06293 24.9998 2.25022 25H10.5627C11.5889 25 12.6009 24.7593 13.5172 24.2973C14.4335 23.8353 15.2288 23.1648 15.839 22.3398C16.4492 21.5147 16.8574 20.558 17.0309 19.5465C17.2043 18.5351 17.1381 17.497 16.8376 16.5158C20.4393 13.7683 25.8752 8.82125 25.8752 4ZM14.1087 12.9195C14.4834 12.4339 14.8513 11.9764 15.2122 11.5469C16.0957 12.1437 16.8565 12.9045 17.4533 13.788C17.0231 14.1482 16.5656 14.516 16.0807 14.8916C15.5708 14.1017 14.8985 13.4294 14.1087 12.9195ZM18.779 12.6264C18.1184 11.6943 17.3048 10.8807 16.3727 10.2202C19.8487 6.44344 22.4704 5.29828 24.018 4.98C23.7063 6.52875 22.5557 9.15047 18.779 12.6264Z" fill="currentColor"/>
</svg>
