<svg viewBox="0 0 50 50" fill="none" xmlns="http://www.w3.org/2000/svg">
<rect width="50" height="50" fill="white"/>
<mask id="path-1-inside-1_132_5" fill="white">
<path d="M41.6641 16.5038C42.4987 17.0602 43 17.9969 43 19V41.3944C43 43.0513 41.6569 44.3944 40 44.3944H33C31.3431 44.3944 30 43.0513 30 41.3944V32.3944C30 30.7376 28.6569 29.3944 27 29.3944H23C21.3431 29.3944 20 30.7376 20 32.3944V41.3944C20 43.0513 18.6569 44.3944 17 44.3944H10C8.34315 44.3944 7 43.0513 7 41.3944V19C7 17.9969 7.5013 17.0602 8.3359 16.5038L23.3359 6.50385C24.3436 5.83205 25.6564 5.83205 26.6641 6.50385L41.6641 16.5038Z"/>
</mask>
<path d="M41.6641 16.5038C42.4987 17.0602 43 17.9969 43 19V41.3944C43 43.0513 41.6569 44.3944 40 44.3944H33C31.3431 44.3944 30 43.0513 30 41.3944V32.3944C30 30.7376 28.6569 29.3944 27 29.3944H23C21.3431 29.3944 20 30.7376 20 32.3944V41.3944C20 43.0513 18.6569 44.3944 17 44.3944H10C8.34315 44.3944 7 43.0513 7 41.3944V19C7 17.9969 7.5013 17.0602 8.3359 16.5038L23.3359 6.50385C24.3436 5.83205 25.6564 5.83205 26.6641 6.50385L41.6641 16.5038Z" fill="white"/>
<path d="M41.6641 16.5038L40.5547 18.1679L41.6641 16.5038ZM43 19H41V41.3944H43H45V19H43ZM40 44.3944V42.3944H33V44.3944V46.3944H40V44.3944ZM30 41.3944H32V32.3944H30H28V41.3944H30ZM27 29.3944V27.3944H23V29.3944V31.3944H27V29.3944ZM20 32.3944H18V41.3944H20H22V32.3944H20ZM17 44.3944V42.3944H10V44.3944V46.3944H17V44.3944ZM7 41.3944H9V19H7H5V41.3944H7ZM8.3359 16.5038L9.4453 18.1679L24.4453 8.16795L23.3359 6.50385L22.2265 4.83975L7.2265 14.8397L8.3359 16.5038ZM26.6641 6.50385L25.5547 8.16795L40.5547 18.1679L41.6641 16.5038L42.7735 14.8397L27.7735 4.83975L26.6641 6.50385ZM23.3359 6.50385L24.4453 8.16795C24.7812 7.94402 25.2188 7.94402 25.5547 8.16795L26.6641 6.50385L27.7735 4.83975C26.094 3.72008 23.906 3.72008 22.2265 4.83975L23.3359 6.50385ZM7 19H9C9 18.6656 9.1671 18.3534 9.4453 18.1679L8.3359 16.5038L7.2265 14.8397C5.83551 15.7671 5 17.3282 5 19H7ZM10 44.3944V42.3944C9.44772 42.3944 9 41.9467 9 41.3944H7H5C5 44.1559 7.23858 46.3944 10 46.3944V44.3944ZM20 41.3944H18C18 41.9467 17.5523 42.3944 17 42.3944V44.3944V46.3944C19.7614 46.3944 22 44.1559 22 41.3944H20ZM23 29.3944V27.3944C20.2386 27.3944 18 29.633 18 32.3944H20H22C22 31.8422 22.4477 31.3944 23 31.3944V29.3944ZM30 32.3944H32C32 29.633 29.7614 27.3944 27 27.3944V29.3944V31.3944C27.5523 31.3944 28 31.8422 28 32.3944H30ZM33 44.3944V42.3944C32.4477 42.3944 32 41.9467 32 41.3944H30H28C28 44.1559 30.2386 46.3944 33 46.3944V44.3944ZM43 41.3944H41C41 41.9467 40.5523 42.3944 40 42.3944V44.3944V46.3944C42.7614 46.3944 45 44.1559 45 41.3944H43ZM43 19H45C45 17.3282 44.1645 15.7671 42.7735 14.8397L41.6641 16.5038L40.5547 18.1679C40.8329 18.3534 41 18.6656 41 19H43Z" fill="currentColor" mask="url(#path-1-inside-1_132_5)"/>
</svg>
