<svg viewBox="0 0 50 50" fill="none" xmlns="http://www.w3.org/2000/svg">
<rect fill="white"/>
<path d="M5 6H23.0811C24.7379 6 26.0811 7.34315 26.0811 9V27.3243C26.0811 28.9812 24.7379 30.3243 23.0811 30.3243H5V6Z" fill="currentColor"/>
<path d="M6.05396 6H23.081C24.7378 6 26.081 7.34315 26.081 9V27.3243C26.081 28.9812 24.7378 30.3243 23.081 30.3243H6.05396" stroke="white" stroke-width="2" stroke-linecap="round"/>
<path d="M20.7422 18.1943C21.1295 18.373 21.1294 18.9237 20.7422 19.1025L15.6963 21.4316C15.365 21.5845 14.9863 21.3424 14.9863 20.9775L14.9863 16.3193C14.9866 15.9546 15.3651 15.7133 15.6963 15.8661L20.7422 18.1943Z" fill="white" stroke="white"/>
<line x1="17.7026" y1="18.6757" x2="7.05399" y2="18.6757" stroke="white" stroke-width="2" stroke-linecap="round"/>
<path d="M44 43.9459L25.9189 43.9459C24.2621 43.9459 22.9189 42.6028 22.9189 40.9459L22.9189 22.6216C22.9189 20.9648 24.2621 19.6216 25.9189 19.6216L44 19.6216L44 43.9459Z" fill="currentColor"/>
<path d="M42.946 43.9459L25.919 43.9459C24.2622 43.9459 22.919 42.6028 22.919 40.9459L22.919 22.6216C22.919 20.9648 24.2622 19.6216 25.919 19.6216L42.946 19.6216" stroke="white" stroke-width="2" stroke-linecap="round"/>
<path d="M28.2578 31.7517C27.8705 31.573 27.8706 31.0223 28.2578 30.8435L33.3037 28.5144C33.635 28.3615 34.0137 28.6036 34.0137 28.9685L34.0137 33.6267C34.0134 33.9914 33.6349 34.2327 33.3037 34.0798L28.2578 31.7517Z" fill="white" stroke="white"/>
<line x1="31.2974" y1="31.2703" x2="41.946" y2="31.2703" stroke="white" stroke-width="2" stroke-linecap="round"/>
</svg>
