<svg viewBox="0 0 50 50" fill="none" xmlns="http://www.w3.org/2000/svg">
<circle cx="25" cy="25" r="18" stroke="black" stroke-width="2"/>
<path d="M25.384 29.848C25.3733 29.976 25.3573 30.1093 25.336 30.248C25.3147 30.3867 25.2773 30.5147 25.224 30.632C25.1707 30.76 25.1013 30.856 25.016 30.92C24.8987 31.0267 24.76 31.0853 24.6 31.096C24.4507 31.1493 24.3067 31.1653 24.168 31.144C24.0293 31.1227 23.9013 31.0853 23.784 31.032C23.6347 30.936 23.5227 30.824 23.448 30.696C23.384 30.5573 23.336 30.4133 23.304 30.264C23.272 30.1147 23.256 29.96 23.256 29.8C23.256 29.64 23.256 29.4907 23.256 29.352V28.104L23.24 25.656C23.24 25.4853 23.24 25.352 23.24 25.256C23.24 25.16 23.24 25.0747 23.24 25C23.24 24.9147 23.2347 24.824 23.224 24.728C23.224 24.6213 23.224 24.472 23.224 24.28C23.224 24.248 23.224 24.1947 23.224 24.12C23.2347 24.0347 23.2293 23.816 23.208 23.464C22.792 24.1573 22.4453 24.7173 22.168 25.144C21.9013 25.56 21.672 25.8853 21.48 26.12C21.2987 26.344 21.1387 26.4987 21 26.584C20.8613 26.6587 20.7173 26.7013 20.568 26.712C20.4827 26.7227 20.3973 26.7067 20.312 26.664C20.2267 26.6213 20.1413 26.568 20.056 26.504C19.9813 26.44 19.9067 26.376 19.832 26.312C19.768 26.2373 19.7147 26.168 19.672 26.104C19.416 25.784 19.128 25.4 18.808 24.952C18.488 24.504 18.1573 23.96 17.816 23.32C17.816 23.3307 17.8107 23.5067 17.8 23.848C17.8 24.1893 17.8 24.616 17.8 25.128C17.8 25.6293 17.7947 26.1733 17.784 26.76C17.784 27.336 17.7787 27.8747 17.768 28.376C17.768 28.8773 17.7627 29.2987 17.752 29.64C17.7413 29.9707 17.7307 30.136 17.72 30.136C17.72 30.3173 17.6773 30.488 17.592 30.648C17.5067 30.7973 17.3893 30.92 17.24 31.016C17.1013 31.112 16.936 31.1653 16.744 31.176C16.552 31.1867 16.344 31.1333 16.12 31.016C15.9813 30.9307 15.8747 30.808 15.8 30.648C15.736 30.488 15.6933 30.3387 15.672 30.2C15.6613 30.0507 15.6507 29.9067 15.64 29.768C15.64 29.6293 15.64 29.4853 15.64 29.336L15.656 28.088L15.672 25.624V23.48C15.672 22.552 15.704 21.64 15.768 20.744C15.768 20.6267 15.7787 20.52 15.8 20.424C15.832 20.3173 15.8693 20.216 15.912 20.12C15.9973 19.9493 16.1093 19.8213 16.248 19.736C16.408 19.64 16.5787 19.592 16.76 19.592C16.8347 19.592 16.904 19.5973 16.968 19.608C17.0427 19.608 17.112 19.6133 17.176 19.624C17.3893 19.6667 17.5707 19.7947 17.72 20.008C17.88 20.2107 18.0293 20.3867 18.168 20.536C18.2533 20.632 18.344 20.7493 18.44 20.888C18.536 21.0267 18.632 21.1707 18.728 21.32C18.824 21.4693 18.9147 21.6133 19 21.752C19.0853 21.8907 19.16 22.0133 19.224 22.12C19.5013 22.568 19.7467 22.9787 19.96 23.352C20.184 23.7253 20.392 24.0453 20.584 24.312C20.616 24.28 20.6533 24.2373 20.696 24.184C20.7387 24.12 20.7813 24.056 20.824 23.992C20.8773 23.9173 20.92 23.848 20.952 23.784C20.9947 23.72 21.0267 23.6667 21.048 23.624C21.1547 23.4533 21.2613 23.288 21.368 23.128C21.4747 22.9573 21.5867 22.7813 21.704 22.6C21.832 22.408 21.96 22.2 22.088 21.976C22.2267 21.752 22.3867 21.496 22.568 21.208C22.6427 21.08 22.7387 20.9253 22.856 20.744C22.9733 20.5627 23.1067 20.3867 23.256 20.216C23.4053 20.0453 23.56 19.9013 23.72 19.784C23.8907 19.656 24.0613 19.592 24.232 19.592C24.3173 19.592 24.392 19.5973 24.456 19.608C24.52 19.608 24.584 19.6133 24.648 19.624C24.776 19.6347 24.8987 19.6933 25.016 19.8C25.1013 19.8853 25.1653 19.976 25.208 20.072C25.2507 20.2107 25.2773 20.328 25.288 20.424C25.2987 20.4987 25.304 20.568 25.304 20.632C25.3147 20.696 25.32 20.76 25.32 20.824C25.32 21.4213 25.3253 22.0133 25.336 22.6C25.3467 23.1867 25.352 23.7787 25.352 24.376C25.352 25.1013 25.352 25.848 25.352 26.616C25.3627 27.384 25.368 28.1307 25.368 28.856C25.368 29.0053 25.3733 29.1653 25.384 29.336C25.3947 29.5067 25.3947 29.6773 25.384 29.848ZM35.2949 20.36C35.3055 20.4133 35.3055 20.4667 35.2949 20.52C35.2949 20.5733 35.2789 20.632 35.2469 20.696C35.2042 20.8453 35.1562 20.9787 35.1029 21.096C35.0389 21.2453 34.9589 21.3733 34.8629 21.48C34.8202 21.544 34.7775 21.608 34.7349 21.672C34.7029 21.7253 34.6709 21.7787 34.6389 21.832L34.4309 22.104L32.3829 25.064L32.0149 25.528V29.784C31.9935 29.8373 31.9829 29.8907 31.9829 29.944C31.9829 29.9973 31.9775 30.056 31.9669 30.12C31.9455 30.1733 31.9295 30.2267 31.9189 30.28C31.9082 30.3227 31.8922 30.3707 31.8709 30.424C31.8495 30.4667 31.8389 30.4987 31.8389 30.52C31.8282 30.5413 31.8175 30.5573 31.8069 30.568C31.8069 30.5787 31.8015 30.5947 31.7909 30.616C31.7269 30.7227 31.6362 30.8187 31.5189 30.904C31.2842 31.0213 31.0175 31.048 30.7189 30.984C30.5482 30.9627 30.4202 30.9093 30.3349 30.824C30.2815 30.792 30.2389 30.7547 30.2069 30.712C30.1749 30.6693 30.1429 30.6213 30.1109 30.568C30.0895 30.504 30.0682 30.4453 30.0469 30.392C30.0255 30.3387 30.0095 30.2853 29.9989 30.232C29.9775 30.1787 29.9669 30.1307 29.9669 30.088C29.9669 30.0347 29.9669 29.9867 29.9669 29.944V25.576L29.6149 25.032L27.5349 22.088L27.3589 21.8C27.2949 21.704 27.2149 21.592 27.1189 21.464C27.0335 21.3467 26.9589 21.2187 26.8949 21.08C26.8522 21.016 26.8149 20.952 26.7829 20.888C26.7615 20.8133 26.7402 20.7387 26.7189 20.664C26.6869 20.5573 26.6815 20.4507 26.7029 20.344C26.7349 20.2053 26.7989 20.088 26.8949 19.992C27.0015 19.896 27.1135 19.8213 27.2309 19.768C27.3802 19.6613 27.5509 19.6187 27.7429 19.64C27.8602 19.64 27.9615 19.6613 28.0469 19.704C28.1322 19.7467 28.2175 19.7947 28.3029 19.848C28.3989 19.9227 28.4895 20.0027 28.5749 20.088C28.6709 20.1733 28.7562 20.264 28.8309 20.36C28.9162 20.4667 28.9962 20.568 29.0709 20.664C29.1455 20.7493 29.2202 20.8507 29.2949 20.968L29.3429 21.032C29.5989 21.3733 29.8389 21.704 30.0629 22.024C30.2869 22.3333 30.5215 22.6693 30.7669 23.032C30.7882 23.0533 30.8202 23.096 30.8629 23.16C30.9055 23.224 30.9535 23.2987 31.0069 23.384C31.0495 23.3093 31.0869 23.2453 31.1189 23.192C31.1615 23.128 31.1935 23.0853 31.2149 23.064C31.4602 22.7013 31.6949 22.36 31.9189 22.04C32.1429 21.72 32.3829 21.3893 32.6389 21.048L32.6709 20.984C32.7562 20.888 32.8309 20.792 32.8949 20.696C32.9695 20.5893 33.0495 20.4827 33.1349 20.376C33.2735 20.184 33.4602 20.0187 33.6949 19.88C33.8655 19.7627 34.0415 19.688 34.2229 19.656C34.4255 19.6347 34.6015 19.6773 34.7509 19.784C34.8149 19.8267 34.8735 19.864 34.9269 19.896C34.9909 19.928 35.0442 19.9653 35.0869 20.008C35.1722 20.104 35.2415 20.2213 35.2949 20.36Z" fill="black"/>
</svg>
