<svg class="w-full h-full" viewBox="0 0 29 29" fill="none" xmlns="http://www.w3.org/2000/svg">
<path d="M25.875 5.75H18.875C17.9467 5.75 17.0565 6.11875 16.4001 6.77513C15.7437 7.4315 15.375 8.32174 15.375 9.25V18.8455C15.378 19.0713 15.2955 19.2899 15.1439 19.4573C14.9923 19.6247 14.783 19.7285 14.558 19.7478C14.4383 19.7558 14.3182 19.739 14.2053 19.6986C14.0923 19.6582 13.9889 19.595 13.9014 19.513C13.8139 19.4309 13.7442 19.3317 13.6967 19.2216C13.6491 19.1115 13.6247 18.9928 13.625 18.8728V9.25C13.625 8.32174 13.2563 7.4315 12.5999 6.77513C11.9435 6.11875 11.0533 5.75 10.125 5.75H3.125C2.89294 5.75 2.67038 5.84219 2.50628 6.00628C2.34219 6.17038 2.25 6.39294 2.25 6.625V22.375C2.25 22.6071 2.34219 22.8296 2.50628 22.9937C2.67038 23.1578 2.89294 23.25 3.125 23.25H11C11.6951 23.25 12.3617 23.5257 12.8538 24.0165C13.3459 24.5074 13.6233 25.1734 13.625 25.8684C13.6215 26.0471 13.6735 26.2224 13.7738 26.3703C13.8741 26.5182 14.0177 26.6314 14.185 26.6942C14.3178 26.7455 14.4611 26.7635 14.6024 26.7469C14.7438 26.7302 14.8789 26.6793 14.9962 26.5986C15.1134 26.5179 15.2092 26.4098 15.2752 26.2837C15.3412 26.1576 15.3755 26.0173 15.375 25.875C15.375 25.1788 15.6516 24.5111 16.1438 24.0188C16.6361 23.5266 17.3038 23.25 18 23.25H25.875C26.1071 23.25 26.3296 23.1578 26.4937 22.9937C26.6578 22.8296 26.75 22.6071 26.75 22.375V6.625C26.75 6.39294 26.6578 6.17038 26.4937 6.00628C26.3296 5.84219 26.1071 5.75 25.875 5.75ZM23.25 18.875H18.9045C18.6787 18.878 18.4601 18.7955 18.2927 18.6439C18.1253 18.4923 18.0215 18.283 18.0022 18.058C17.9942 17.9383 18.011 17.8182 18.0514 17.7053C18.0918 17.5924 18.155 17.4889 18.237 17.4014C18.3191 17.3139 18.4183 17.2442 18.5284 17.1967C18.6385 17.1491 18.7572 17.1247 18.8772 17.125H23.2227C23.4485 17.122 23.6671 17.2045 23.8345 17.3561C24.0019 17.5077 24.1057 17.717 24.125 17.942C24.1329 18.0617 24.1162 18.1818 24.0758 18.2947C24.0354 18.4077 23.9722 18.5111 23.8902 18.5986C23.8081 18.6861 23.7089 18.7558 23.5988 18.8033C23.4887 18.8509 23.37 18.8753 23.25 18.875ZM23.25 15.375H18.9045C18.6787 15.378 18.4601 15.2955 18.2927 15.1439C18.1253 14.9923 18.0215 14.783 18.0022 14.558C17.9942 14.4383 18.011 14.3182 18.0514 14.2053C18.0918 14.0924 18.155 13.9889 18.237 13.9014C18.3191 13.8139 18.4183 13.7442 18.5284 13.6967C18.6385 13.6491 18.7572 13.6247 18.8772 13.625H23.2227C23.4485 13.622 23.6671 13.7045 23.8345 13.8561C24.0019 14.0077 24.1057 14.217 24.125 14.442C24.1329 14.5617 24.1162 14.6818 24.0758 14.7947C24.0354 14.9077 23.9722 15.0111 23.8902 15.0986C23.8081 15.1861 23.7089 15.2558 23.5988 15.3033C23.4887 15.3509 23.37 15.3753 23.25 15.375ZM23.25 11.875H18.9045C18.6783 11.8786 18.4592 11.7963 18.2913 11.6446C18.1235 11.493 18.0194 11.2834 18 11.058C17.9921 10.9383 18.0088 10.8182 18.0492 10.7053C18.0896 10.5924 18.1528 10.4889 18.2348 10.4014C18.3169 10.3139 18.4161 10.2442 18.5262 10.1967C18.6363 10.1491 18.755 10.1247 18.875 10.125H23.2205C23.4467 10.1214 23.6658 10.2037 23.8337 10.3554C24.0015 10.507 24.1056 10.7166 24.125 10.942C24.1329 11.0617 24.1162 11.1818 24.0758 11.2947C24.0354 11.4077 23.9722 11.5111 23.8902 11.5986C23.8081 11.6861 23.7089 11.7558 23.5988 11.8033C23.4887 11.8509 23.37 11.8753 23.25 11.875Z" fill="currentColor"/>
</svg>
