<svg class="w-full h-full" viewBox="0 0 29 29" fill="none" xmlns="http://www.w3.org/2000/svg">
<path d="M18.875 25C18.875 25.2321 18.7828 25.4546 18.6187 25.6187C18.4546 25.7828 18.2321 25.875 18 25.875H11C10.7679 25.875 10.5454 25.7828 10.3813 25.6187C10.2172 25.4546 10.125 25.2321 10.125 25C10.125 24.7679 10.2172 24.5454 10.3813 24.3813C10.5454 24.2172 10.7679 24.125 11 24.125H18C18.2321 24.125 18.4546 24.2172 18.6187 24.3813C18.7828 24.5454 18.875 24.7679 18.875 25ZM25.875 7.5V19.75C25.875 20.4462 25.5984 21.1139 25.1062 21.6062C24.6139 22.0984 23.9462 22.375 23.25 22.375H5.75C5.05381 22.375 4.38613 22.0984 3.89384 21.6062C3.40156 21.1139 3.125 20.4462 3.125 19.75V7.5C3.125 6.80381 3.40156 6.13613 3.89384 5.64384C4.38613 5.15156 5.05381 4.875 5.75 4.875H23.25C23.9462 4.875 24.6139 5.15156 25.1062 5.64384C25.5984 6.13613 25.875 6.80381 25.875 7.5ZM18.4375 13.625C18.4375 13.4844 18.4035 13.3459 18.3386 13.2212C18.2737 13.0965 18.1797 12.9893 18.0645 12.9086L13.6895 9.84609C13.5584 9.75425 13.4047 9.70014 13.2449 9.68963C13.0852 9.67913 12.9257 9.71264 12.7837 9.78651C12.6417 9.86039 12.5226 9.9718 12.4396 10.1086C12.3565 10.2454 12.3125 10.4024 12.3125 10.5625V16.6875C12.3125 16.8476 12.3565 17.0046 12.4396 17.1414C12.5226 17.2782 12.6417 17.3896 12.7837 17.4635C12.9257 17.5374 13.0852 17.5709 13.2449 17.5604C13.4047 17.5499 13.5584 17.4957 13.6895 17.4039L18.0645 14.3414C18.1797 14.2607 18.2737 14.1535 18.3386 14.0288C18.4035 13.9041 18.4375 13.7656 18.4375 13.625Z" fill="currentColor"/>
</svg>
