<svg class="w-full h-full" viewBox="0 0 29 29" fill="none" xmlns="http://www.w3.org/2000/svg">
<path d="M25 8.375H23.25V7.5C23.25 6.80381 22.9734 6.13613 22.4812 5.64384C21.9889 5.15156 21.3212 4.875 20.625 4.875H4.875C4.17881 4.875 3.51113 5.15156 3.01884 5.64384C2.52656 6.13613 2.25 6.80381 2.25 7.5V18C2.25 18.6962 2.52656 19.3639 3.01884 19.8562C3.51113 20.3484 4.17881 20.625 4.875 20.625H17.125V21.5C17.125 22.1962 17.4016 22.8639 17.8938 23.3562C18.3861 23.8484 19.0538 24.125 19.75 24.125H25C25.6962 24.125 26.3639 23.8484 26.8562 23.3562C27.3484 22.8639 27.625 22.1962 27.625 21.5V11C27.625 10.3038 27.3484 9.63613 26.8562 9.14384C26.3639 8.65156 25.6962 8.375 25 8.375ZM25.875 21.5C25.875 21.7321 25.7828 21.9546 25.6187 22.1187C25.4546 22.2828 25.2321 22.375 25 22.375H19.75C19.5179 22.375 19.2954 22.2828 19.1313 22.1187C18.9672 21.9546 18.875 21.7321 18.875 21.5V11C18.875 10.7679 18.9672 10.5454 19.1313 10.3813C19.2954 10.2172 19.5179 10.125 19.75 10.125H25C25.2321 10.125 25.4546 10.2172 25.6187 10.3813C25.7828 10.5454 25.875 10.7679 25.875 11V21.5ZM15.375 23.25C15.375 23.4821 15.2828 23.7046 15.1187 23.8687C14.9546 24.0328 14.7321 24.125 14.5 24.125H10.125C9.89294 24.125 9.67038 24.0328 9.50628 23.8687C9.34219 23.7046 9.25 23.4821 9.25 23.25C9.25 23.0179 9.34219 22.7954 9.50628 22.6313C9.67038 22.4672 9.89294 22.375 10.125 22.375H14.5C14.7321 22.375 14.9546 22.4672 15.1187 22.6313C15.2828 22.7954 15.375 23.0179 15.375 23.25ZM24.125 12.75C24.125 12.9821 24.0328 13.2046 23.8687 13.3687C23.7046 13.5328 23.4821 13.625 23.25 13.625H21.5C21.2679 13.625 21.0454 13.5328 20.8813 13.3687C20.7172 13.2046 20.625 12.9821 20.625 12.75C20.625 12.5179 20.7172 12.2954 20.8813 12.1313C21.0454 11.9672 21.2679 11.875 21.5 11.875H23.25C23.4821 11.875 23.7046 11.9672 23.8687 12.1313C24.0328 12.2954 24.125 12.5179 24.125 12.75Z" fill="currentColor"/>
</svg>
