<svg class="w-full h-full" viewBox="0 0 29 29" fill="none" xmlns="http://www.w3.org/2000/svg">
<path d="M25.875 25H23.25V4H24.125C24.3571 4 24.5796 3.90781 24.7437 3.74372C24.9078 3.57962 25 3.35706 25 3.125C25 2.89294 24.9078 2.67038 24.7437 2.50628C24.5796 2.34219 24.3571 2.25 24.125 2.25H4.875C4.64294 2.25 4.42038 2.34219 4.25628 2.50628C4.09219 2.67038 4 2.89294 4 3.125C4 3.35706 4.09219 3.57962 4.25628 3.74372C4.42038 3.90781 4.64294 4 4.875 4H5.75V25H3.125C2.89294 25 2.67038 25.0922 2.50628 25.2563C2.34219 25.4204 2.25 25.6429 2.25 25.875C2.25 26.1071 2.34219 26.3296 2.50628 26.4937C2.67038 26.6578 2.89294 26.75 3.125 26.75H25.875C26.1071 26.75 26.3296 26.6578 26.4937 26.4937C26.6578 26.3296 26.75 26.1071 26.75 25.875C26.75 25.6429 26.6578 25.4204 26.4937 25.2563C26.3296 25.0922 26.1071 25 25.875 25ZM10.125 6.625H12.75C12.9821 6.625 13.2046 6.71719 13.3687 6.88128C13.5328 7.04538 13.625 7.26794 13.625 7.5C13.625 7.73206 13.5328 7.95462 13.3687 8.11872C13.2046 8.28281 12.9821 8.375 12.75 8.375H10.125C9.89294 8.375 9.67038 8.28281 9.50628 8.11872C9.34219 7.95462 9.25 7.73206 9.25 7.5C9.25 7.26794 9.34219 7.04538 9.50628 6.88128C9.67038 6.71719 9.89294 6.625 10.125 6.625ZM10.125 11H12.75C12.9821 11 13.2046 11.0922 13.3687 11.2563C13.5328 11.4204 13.625 11.6429 13.625 11.875C13.625 12.1071 13.5328 12.3296 13.3687 12.4937C13.2046 12.6578 12.9821 12.75 12.75 12.75H10.125C9.89294 12.75 9.67038 12.6578 9.50628 12.4937C9.34219 12.3296 9.25 12.1071 9.25 11.875C9.25 11.6429 9.34219 11.4204 9.50628 11.2563C9.67038 11.0922 9.89294 11 10.125 11ZM9.25 16.25C9.25 16.0179 9.34219 15.7954 9.50628 15.6313C9.67038 15.4672 9.89294 15.375 10.125 15.375H12.75C12.9821 15.375 13.2046 15.4672 13.3687 15.6313C13.5328 15.7954 13.625 16.0179 13.625 16.25C13.625 16.4821 13.5328 16.7046 13.3687 16.8687C13.2046 17.0328 12.9821 17.125 12.75 17.125H10.125C9.89294 17.125 9.67038 17.0328 9.50628 16.8687C9.34219 16.7046 9.25 16.4821 9.25 16.25ZM17.125 25H11.875V20.625H17.125V25ZM18.875 17.125H16.25C16.0179 17.125 15.7954 17.0328 15.6313 16.8687C15.4672 16.7046 15.375 16.4821 15.375 16.25C15.375 16.0179 15.4672 15.7954 15.6313 15.6313C15.7954 15.4672 16.0179 15.375 16.25 15.375H18.875C19.1071 15.375 19.3296 15.4672 19.4937 15.6313C19.6578 15.7954 19.75 16.0179 19.75 16.25C19.75 16.4821 19.6578 16.7046 19.4937 16.8687C19.3296 17.0328 19.1071 17.125 18.875 17.125ZM18.875 12.75H16.25C16.0179 12.75 15.7954 12.6578 15.6313 12.4937C15.4672 12.3296 15.375 12.1071 15.375 11.875C15.375 11.6429 15.4672 11.4204 15.6313 11.2563C15.7954 11.0922 16.0179 11 16.25 11H18.875C19.1071 11 19.3296 11.0922 19.4937 11.2563C19.6578 11.4204 19.75 11.6429 19.75 11.875C19.75 12.1071 19.6578 12.3296 19.4937 12.4937C19.3296 12.6578 19.1071 12.75 18.875 12.75ZM18.875 8.375H16.25C16.0179 8.375 15.7954 8.28281 15.6313 8.11872C15.4672 7.95462 15.375 7.73206 15.375 7.5C15.375 7.26794 15.4672 7.04538 15.6313 6.88128C15.7954 6.71719 16.0179 6.625 16.25 6.625H18.875C19.1071 6.625 19.3296 6.71719 19.4937 6.88128C19.6578 7.04538 19.75 7.26794 19.75 7.5C19.75 7.73206 19.6578 7.95462 19.4937 8.11872C19.3296 8.28281 19.1071 8.375 18.875 8.375Z" fill="currentColor"/>
</svg>
