<svg class="w-full h-full" viewBox="0 0 25 27" fill="none" xmlns="http://www.w3.org/2000/svg">
<path d="M15.1162 0.193359C18.3141 0.193593 20.9387 2.6863 21.2207 5.86719C23.2974 6.80104 24.7499 8.93924 24.75 11.4287C24.75 13.4653 23.7767 15.2656 22.2861 16.3652C22.2924 16.4725 22.2969 16.5806 22.2969 16.6895C22.2969 19.6802 19.8871 22.1054 16.9062 22.127L14.7236 26.1396C14.3255 26.8712 13.275 26.8712 12.877 26.1396L11.4209 23.4629C10.9122 23.5542 10.3896 23.6055 9.85547 23.6055C4.86784 23.6055 0.824278 19.4538 0.824219 14.332C0.824219 12.9195 1.13258 11.5811 1.68262 10.3828C1.10292 9.73663 0.75 8.88499 0.75 7.95117C0.750083 5.93212 2.39705 4.29499 4.42871 4.29492C4.46887 4.29492 4.50898 4.29658 4.54883 4.29785C5.0134 2.25182 6.78256 0.728687 8.89551 0.728516C9.80777 0.728516 10.6563 1.01275 11.3633 1.5C12.4005 0.681493 13.7023 0.193359 15.1162 0.193359Z" fill="url(#paint0_linear_10007_17159)"/>
<circle cx="5.91798" cy="13.7832" r="1.13869" fill="white"/>
<circle cx="10.2979" cy="13.7832" r="1.13869" fill="white"/>
<defs>
<linearGradient id="paint0_linear_10007_17159" x1="2.11214" y1="2.17085" x2="21.8467" y2="23.7085" gradientUnits="userSpaceOnUse">
<stop stop-color="#FFD06C"/>
<stop offset="1" stop-color="#FF3647"/>
</linearGradient>
</defs>
</svg>
