<svg width="36" height="36" viewBox="0 0 36 36" fill="none" xmlns="http://www.w3.org/2000/svg">
<path d="M27.75 12H25.5V10.5C25.5 10.3011 25.421 10.1103 25.2803 9.96967C25.1397 9.82902 24.9489 9.75 24.75 9.75H11.25C11.0511 9.75 10.8603 9.82902 10.7197 9.96967C10.579 10.1103 10.5 10.3011 10.5 10.5V12H8.25C7.85218 12 7.47064 12.158 7.18934 12.4393C6.90804 12.7206 6.75 13.1022 6.75 13.5V15C6.75 15.9946 7.14509 16.9484 7.84835 17.6517C8.19657 17.9999 8.60997 18.2761 9.06494 18.4645C9.51991 18.653 10.0075 18.75 10.5 18.75H10.8422C11.284 20.1501 12.1263 21.39 13.2652 22.3166C14.404 23.2431 15.7893 23.8157 17.25 23.9634V26.25H15C14.8011 26.25 14.6103 26.329 14.4697 26.4697C14.329 26.6103 14.25 26.8011 14.25 27C14.25 27.1989 14.329 27.3897 14.4697 27.5303C14.6103 27.671 14.8011 27.75 15 27.75H21C21.1989 27.75 21.3897 27.671 21.5303 27.5303C21.671 27.3897 21.75 27.1989 21.75 27C21.75 26.8011 21.671 26.6103 21.5303 26.4697C21.3897 26.329 21.1989 26.25 21 26.25H18.75V23.9606C21.7444 23.6578 24.2288 21.5569 25.1325 18.75H25.5C26.4946 18.75 27.4484 18.3549 28.1516 17.6517C28.8549 16.9484 29.25 15.9946 29.25 15V13.5C29.25 13.1022 29.092 12.7206 28.8107 12.4393C28.5294 12.158 28.1478 12 27.75 12ZM10.5 17.25C9.90326 17.25 9.33097 17.0129 8.90901 16.591C8.48705 16.169 8.25 15.5967 8.25 15V13.5H10.5V16.5C10.5 16.75 10.5122 17 10.5366 17.25H10.5ZM27.75 15C27.75 15.5967 27.5129 16.169 27.091 16.591C26.669 17.0129 26.0967 17.25 25.5 17.25H25.4531C25.4839 16.9729 25.4995 16.6944 25.5 16.4156V13.5H27.75V15Z" fill="black"/>
</svg>
