<svg width="129" height="33" viewBox="0 0 129 33" fill="none" xmlns="http://www.w3.org/2000/svg">
<g clip-path="url(#clip0_7677_19549)">
<path d="M76.306 16.3953C76.306 15.1777 75.952 13.9873 75.2885 12.9742C74.6251 11.961 73.6819 11.1705 72.5778 10.7022V8.33008H68.8497V10.3986C67.6877 10.6776 66.6329 11.3004 65.8179 12.1886C65.003 13.0768 64.4645 14.1906 64.2701 15.3898C64.0758 16.5889 64.2344 17.8198 64.7259 18.9274C65.2174 20.035 66.0199 20.9698 67.0322 21.614C65.9177 22.3246 65.0606 23.385 64.5902 24.6352C64.1199 25.8853 64.0619 27.2574 64.425 28.544C64.7881 29.8307 65.5526 30.9622 66.603 31.7676C67.6534 32.573 68.9327 33.0086 70.2477 33.0086C71.5628 33.0086 72.8421 32.573 73.8925 31.7676C74.9429 30.9622 75.7074 29.8307 76.0705 28.544C76.4336 27.2574 76.3756 25.8853 75.9052 24.6352C75.4349 23.385 74.5778 22.3246 73.4633 21.614C74.3327 21.0607 75.0498 20.2915 75.5471 19.3786C76.0443 18.4657 76.3055 17.4392 76.306 16.3953ZM70.2477 14.0232C70.7086 14.0232 71.1591 14.1623 71.5423 14.423C71.9255 14.6836 72.2241 15.0541 72.4005 15.4876C72.5768 15.921 72.623 16.3979 72.5331 16.8581C72.4432 17.3182 72.2212 17.7409 71.8954 18.0727C71.5695 18.4044 71.1543 18.6303 70.7023 18.7219C70.2503 18.8134 69.7818 18.7664 69.3561 18.5869C68.9303 18.4073 68.5664 18.1033 68.3103 17.7132C68.0543 17.3231 67.9176 16.8645 67.9176 16.3953C67.9176 15.7662 68.1631 15.1628 68.6001 14.718C69.0371 14.2731 69.6298 14.0232 70.2477 14.0232ZM70.2477 29.2048C69.7869 29.2048 69.3364 29.0657 68.9532 28.805C68.57 28.5444 68.2714 28.1739 68.095 27.7404C67.9187 27.307 67.8725 26.83 67.9624 26.3699C68.0523 25.9097 68.2743 25.4871 68.6001 25.1553C68.926 24.8236 69.3412 24.5977 69.7932 24.5061C70.2452 24.4146 70.7137 24.4616 71.1394 24.6411C71.5652 24.8207 71.9291 25.1247 72.1852 25.5148C72.4412 25.9049 72.5778 26.3635 72.5778 26.8327C72.5778 27.4618 72.3323 28.0652 71.8954 28.51C71.4584 28.9549 70.8657 29.2048 70.2477 29.2048Z" fill="#FD7E35"/>
<path d="M89.3541 16.3951C89.3541 15.1752 88.9987 13.9828 88.333 12.9686C87.6674 11.9543 86.7212 11.1638 85.6142 10.697C84.5072 10.2302 83.2891 10.1081 82.1139 10.3461C80.9387 10.584 79.8592 11.1714 79.012 12.034C78.1647 12.8965 77.5877 13.9954 77.354 15.1918C77.1202 16.3882 77.2402 17.6283 77.6987 18.7553C78.1572 19.8823 78.9337 20.8455 79.93 21.5232C80.9263 22.2009 82.0976 22.5626 83.2958 22.5626C84.4502 22.5723 85.5828 22.2428 86.5579 21.6137V22.5626H90.2861V18.7672H88.888C89.1961 18.0157 89.3546 17.2094 89.3541 16.3951ZM83.2958 18.7672C82.835 18.7672 82.3845 18.6281 82.0013 18.3674C81.6181 18.1068 81.3194 17.7363 81.1431 17.3028C80.9667 16.8694 80.9206 16.3924 81.0105 15.9323C81.1004 15.4721 81.3223 15.0495 81.6482 14.7177C81.9741 14.386 82.3892 14.16 82.8412 14.0685C83.2932 13.977 83.7617 14.024 84.1875 14.2035C84.6133 14.3831 84.9772 14.6871 85.2332 15.0772C85.4892 15.4673 85.6259 15.9259 85.6259 16.3951C85.6259 17.0242 85.3804 17.6275 84.9434 18.0724C84.5065 18.5173 83.9138 18.7672 83.2958 18.7672Z" fill="#FD7E35"/>
<path d="M108.461 10.2275C107.263 10.2275 106.092 10.5893 105.096 11.267C104.099 11.9447 103.323 12.9079 102.864 14.0348C102.406 15.1618 102.286 16.4019 102.519 17.5983C102.753 18.7947 103.33 19.8936 104.177 20.7562C105.025 21.6187 106.104 22.2061 107.279 22.4441C108.455 22.6821 109.673 22.5599 110.78 22.0931C111.887 21.6263 112.833 20.8358 113.499 19.8216C114.164 18.8073 114.52 17.6149 114.52 16.3951C114.517 14.7601 113.878 13.1928 112.742 12.0367C111.607 10.8807 110.067 10.23 108.461 10.2275ZM108.461 18.7672C108 18.7672 107.55 18.6281 107.167 18.3674C106.784 18.1068 106.485 17.7363 106.309 17.3028C106.132 16.8694 106.086 16.3924 106.176 15.9323C106.266 15.4721 106.488 15.0495 106.814 14.7177C107.14 14.386 107.555 14.16 108.007 14.0685C108.459 13.977 108.927 14.024 109.353 14.2035C109.779 14.3831 110.143 14.6871 110.399 15.0772C110.655 15.4673 110.791 15.9259 110.791 16.3951C110.791 17.0242 110.546 17.6276 110.109 18.0724C109.672 18.5173 109.079 18.7672 108.461 18.7672Z" fill="#FD7E35"/>
<path d="M57.1989 10.2275C56.0007 10.2275 54.8294 10.5893 53.8331 11.267C52.8368 11.9447 52.0603 12.9079 51.6018 14.0348C51.1433 15.1618 51.0233 16.4019 51.257 17.5983C51.4908 18.7947 52.0678 19.8936 52.9151 20.7562C53.7623 21.6187 54.8418 22.2061 56.017 22.4441C57.1922 22.6821 58.4103 22.5599 59.5173 22.0931C60.6243 21.6263 61.5704 20.8358 62.2361 19.8216C62.9018 18.8073 63.2571 17.6149 63.2571 16.3951C63.2547 14.7601 62.6156 13.1928 61.48 12.0367C60.3444 10.8807 58.8049 10.23 57.1989 10.2275ZM57.1989 18.7672C56.738 18.7672 56.2875 18.6281 55.9043 18.3674C55.5212 18.1068 55.2225 17.7363 55.0462 17.3028C54.8698 16.8694 54.8236 16.3924 54.9136 15.9323C55.0035 15.4721 55.2254 15.0495 55.5513 14.7177C55.8771 14.386 56.2923 14.16 56.7443 14.0685C57.1963 13.977 57.6648 14.024 58.0906 14.2035C58.5163 14.3831 58.8803 14.6871 59.1363 15.0772C59.3923 15.4673 59.529 15.9259 59.529 16.3951C59.529 17.0242 59.2835 17.6276 58.8465 18.0724C58.4095 18.5173 57.8169 18.7672 57.1989 18.7672Z" fill="#FD7E35"/>
<path d="M101.247 12.1255H102.403V8.33008H91.2188V12.1255H96.7457L92.3279 18.7674H91.2188V22.5628H102.403V18.7674H96.8296L101.247 12.1255Z" fill="#FD7E35"/>
<path d="M127.102 18.7668C127.656 17.3978 127.711 15.8718 127.255 14.4653C126.8 13.0589 125.865 11.865 124.619 11.0999C123.374 10.3349 121.9 10.0492 120.466 10.2948C119.031 10.5403 117.731 11.3008 116.799 12.4384C115.868 13.5761 115.368 15.0157 115.389 16.4964C115.411 17.9771 115.952 19.401 116.916 20.5102C117.88 21.6194 119.202 22.3405 120.643 22.5429C122.084 22.7452 123.549 22.4155 124.771 21.6134V22.5622H128.5V18.7668H127.102ZM121.509 18.7668C121.048 18.7668 120.598 18.6277 120.215 18.3671C119.832 18.1064 119.533 17.7359 119.357 17.3025C119.18 16.869 119.134 16.3921 119.224 15.9319C119.314 15.4718 119.536 15.0491 119.862 14.7174C120.188 14.3856 120.603 14.1597 121.055 14.0682C121.507 13.9766 121.975 14.0236 122.401 14.2032C122.827 14.3827 123.191 14.6867 123.447 15.0768C123.703 15.4669 123.839 15.9255 123.839 16.3947C123.839 17.0238 123.594 17.6272 123.157 18.072C122.72 18.5169 122.127 18.7668 121.509 18.7668Z" fill="#FD7E35"/>
<path d="M44.9986 8.33011C43.6344 8.32522 42.3239 8.87117 41.3544 9.84828C40.3848 8.87117 39.0743 8.32522 37.7101 8.33011C36.3283 8.33011 35.0031 8.88893 34.026 9.88363C33.0489 10.8783 32.5 12.2275 32.5 13.6342V22.5629H36.2282V13.6342C36.2282 13.2341 36.3843 12.8503 36.6622 12.5674C36.9401 12.2845 37.3171 12.1255 37.7101 12.1255C38.1031 12.1255 38.4801 12.2845 38.758 12.5674C39.0359 12.8503 39.192 13.2341 39.192 13.6342V22.5629H43.5167V13.6342C43.5167 13.2341 43.6728 12.8503 43.9508 12.5674C44.2287 12.2845 44.6056 12.1255 44.9986 12.1255C45.3917 12.1255 45.7686 12.2845 46.0465 12.5674C46.3245 12.8503 46.4806 13.2341 46.4806 13.6342V22.5629H50.2087V13.6342C50.2087 12.2275 49.6598 10.8783 48.6827 9.88363C47.7057 8.88893 46.3804 8.33011 44.9986 8.33011Z" fill="#FD7E35"/>
</g>
<path d="M16.1162 0.193359C19.3141 0.193593 21.9387 2.6863 22.2207 5.86719C24.2974 6.80104 25.7499 8.93924 25.75 11.4287C25.75 13.4653 24.7767 15.2656 23.2861 16.3652C23.2924 16.4725 23.2969 16.5806 23.2969 16.6895C23.2969 19.6802 20.8871 22.1054 17.9062 22.127L15.7236 26.1396C15.3255 26.8712 14.275 26.8712 13.877 26.1396L12.4209 23.4629C11.9122 23.5542 11.3896 23.6055 10.8555 23.6055C5.86784 23.6055 1.82428 19.4538 1.82422 14.332C1.82422 12.9195 2.13258 11.5811 2.68262 10.3828C2.10292 9.73663 1.75 8.88499 1.75 7.95117C1.75008 5.93212 3.39705 4.29499 5.42871 4.29492C5.46887 4.29492 5.50898 4.29658 5.54883 4.29785C6.0134 2.25182 7.78256 0.728687 9.89551 0.728516C10.8078 0.728516 11.6563 1.01275 12.3633 1.5C13.4005 0.681493 14.7023 0.193359 16.1162 0.193359Z" fill="url(#paint0_linear_7677_19549)"/>
<circle cx="6.91798" cy="13.7842" r="1.13869" fill="white"/>
<circle cx="11.2979" cy="13.7842" r="1.13869" fill="white"/>
<defs>
<linearGradient id="paint0_linear_7677_19549" x1="3.11214" y1="2.17085" x2="22.8467" y2="23.7085" gradientUnits="userSpaceOnUse">
<stop stop-color="#FFD06C"/>
<stop offset="1" stop-color="#FF3647"/>
</linearGradient>
<clipPath id="clip0_7677_19549">
<rect width="96" height="24.6701" fill="white" transform="translate(32.5 8.33008)"/>
</clipPath>
</defs>
</svg>
